# xmcd CD database file
#
# Track frame offsets:
#	150
#	22692
#	49155
#	67715
#	90765
#	107275
#	129080
#	145902
#	159952
#	175005
#	197665
#
# Disc length: 2862 seconds
#
# Revision: 6
# Processed by: cddbd v1.5.2PL0 Copyright (c) Steve Scherf et al.
# Submitted via: CDex 1.72
#
DISCID=6f0b2c0b
DTITLE=Gilmore, Jimmie Dale (USA-96-Braver New World-cty) - Braver Newer World
DYEAR=1996
DGENRE=Country
TTITLE0=Braver Newer World
TTITLE1=Come Fly Away
TTITLE2=Borderland
TTITLE3=Headed For A Fall
TTITLE4=Long, Long Time
TTITLE5=Sally
TTITLE6=There She Goes
TTITLE7=Where Is Love Now
TTITLE8=Black Snake Moan
TTITLE9=Because Of The Wind
TTITLE10=Outside The Lines
EXTD=YEAR: 1996
EXTT0=
EXTT1=
EXTT2=
EXTT3=
EXTT4=
EXTT5=
EXTT6=
EXTT7=
EXTT8=
EXTT9=
EXTT10=
PLAYORDER=
